<?xml version="1.0" encoding="UTF-8"?>
<svg version="1.1" xmlns="http://www.w3.org/2000/svg" width="24" height="24">
<path d="M0 0 C1.051875 -0.00257812 2.10375 -0.00515625 3.1875 -0.0078125 C6 0.125 6 0.125 9 1.125 C11.45790037 6.40493412 12.36134972 10.34340447 12 16.125 C8.61565537 18.21931209 6.46114219 18.21200526 2.5625 17.6875 C-1.30001422 17.17715389 -4.20119106 17.33681175 -8 18.125 C-10.3125 17.1875 -10.3125 17.1875 -12 16.125 C-12.36134972 10.34340447 -11.45790037 6.40493412 -9 1.125 C-5.77717587 0.05072529 -3.38488847 -0.0082963 0 0 Z M-9 5.125 C-10.29513655 8.0703912 -10.73225734 10.93216878 -11 14.125 C-10.01 14.125 -9.02 14.125 -8 14.125 C-7.4225 14.29 -6.845 14.455 -6.25 14.625 C-1.10433768 15.76848052 3.26625026 15.42015139 8 13.125 C8 13.785 8 14.445 8 15.125 C8.99 14.795 9.98 14.465 11 14.125 C10.73225734 10.93216878 10.29513655 8.0703912 9 5.125 C3.37725918 1.26532198 -3.37725918 1.26532198 -9 5.125 Z " fill="#EBD6AB" transform="translate(12,2.875)"/>
<path d="M0 0 C1.98 0.495 1.98 0.495 4 1 C3.67 2.65 3.34 4.3 3 6 C1.68 5.67 0.36 5.34 -1 5 C-0.67 3.35 -0.34 1.7 0 0 Z M1 2 C2 4 2 4 2 4 Z " fill="#E9D3AA" transform="translate(14,10)"/>
<path d="M0 0 C1.98 0.495 1.98 0.495 4 1 C3.67 2.65 3.34 4.3 3 6 C1.68 5.67 0.36 5.34 -1 5 C-0.67 3.35 -0.34 1.7 0 0 Z M1 2 C2 4 2 4 2 4 Z " fill="#E9D3A9" transform="translate(7,10)"/>
</svg>
