<?xml version="1.0" encoding="UTF-8"?>
<svg version="1.1" xmlns="http://www.w3.org/2000/svg" width="24" height="24">
<path d="M0 0 C0.78890625 -0.00386719 1.5778125 -0.00773438 2.390625 -0.01171875 C3.21046875 -0.00011719 4.0303125 0.01148437 4.875 0.0234375 C6.10476563 0.00603516 6.10476563 0.00603516 7.359375 -0.01171875 C8.54273438 -0.00591797 8.54273438 -0.00591797 9.75 0 C10.46929688 0.00338379 11.18859375 0.00676758 11.9296875 0.01025391 C14.47587878 0.51834177 15.35124323 1.31450194 16.875 3.3984375 C17.26318359 5.34375 17.26318359 5.34375 17.2734375 7.5234375 C17.27923828 8.70679688 17.27923828 8.70679688 17.28515625 9.9140625 C17.27355469 10.73390625 17.26195313 11.55375 17.25 12.3984375 C17.26160156 13.21828125 17.27320312 14.038125 17.28515625 14.8828125 C17.28128906 15.67171875 17.27742188 16.460625 17.2734375 17.2734375 C17.26836182 18.35238281 17.26836182 18.35238281 17.26318359 19.453125 C16.75509573 21.99931628 15.95893556 22.87468073 13.875 24.3984375 C11.9296875 24.78662109 11.9296875 24.78662109 9.75 24.796875 C8.96109375 24.80074219 8.1721875 24.80460937 7.359375 24.80859375 C6.53953125 24.79699219 5.7196875 24.78539063 4.875 24.7734375 C3.64523437 24.79083984 3.64523437 24.79083984 2.390625 24.80859375 C1.20726562 24.80279297 1.20726562 24.80279297 0 24.796875 C-0.71929688 24.79349121 -1.43859375 24.79010742 -2.1796875 24.78662109 C-4.72587878 24.27853323 -5.60124323 23.48237306 -7.125 21.3984375 C-7.51318359 19.453125 -7.51318359 19.453125 -7.5234375 17.2734375 C-7.52730469 16.48453125 -7.53117188 15.695625 -7.53515625 14.8828125 C-7.52355469 14.06296875 -7.51195312 13.243125 -7.5 12.3984375 C-7.51160156 11.57859375 -7.52320313 10.75875 -7.53515625 9.9140625 C-7.52935547 8.73070312 -7.52935547 8.73070312 -7.5234375 7.5234375 C-7.52005371 6.80414062 -7.51666992 6.08484375 -7.51318359 5.34375 C-6.66386947 1.0875645 -4.04682146 0.01903747 0 0 Z M-4.125 5.3984375 C-4.44557871 8.68607765 -4.44557871 8.68607765 -4.375 12.3984375 C-4.38015625 13.6565625 -4.3853125 14.9146875 -4.390625 16.2109375 C-4.46280455 19.49126111 -4.46280455 19.49126111 -2.125 21.3984375 C1.16264015 21.71901621 1.16264015 21.71901621 4.875 21.6484375 C6.7621875 21.65617187 6.7621875 21.65617187 8.6875 21.6640625 C11.96782361 21.73624205 11.96782361 21.73624205 13.875 19.3984375 C14.11877883 16.04099638 14.11877883 16.04099638 14 12.2734375 C13.98195313 10.99210938 13.96390625 9.71078125 13.9453125 8.390625 C13.92210938 7.40320313 13.89890625 6.41578125 13.875 5.3984375 C13.545 6.0584375 13.215 6.7184375 12.875 7.3984375 C11.885 7.3984375 10.895 7.3984375 9.875 7.3984375 C9.875 6.4084375 9.875 5.4184375 9.875 4.3984375 C10.535 4.0684375 11.195 3.7384375 11.875 3.3984375 C9.58358714 3.34459229 7.29181812 3.30571663 5 3.2734375 C3.72382813 3.25023437 2.44765625 3.22703125 1.1328125 3.203125 C-2.21093338 3.04202226 -2.21093338 3.04202226 -4.125 5.3984375 Z " fill="#EAD3AA" transform="translate(7.125,-0.3984375)"/>
<path d="M0 0 C1.9375 1.6875 1.9375 1.6875 3 4 C2.92897215 7.4803645 2.61415498 9.29485909 0.3125 11.9375 C-2.89943934 13.41325591 -4.66474802 13.06444212 -8 12 C-9.9375 10.3125 -9.9375 10.3125 -11 8 C-10.92897215 4.5196355 -10.61415498 2.70514091 -8.3125 0.0625 C-5.10056066 -1.41325591 -3.33525198 -1.06444212 0 0 Z M-6 3 C-6.33 4.65 -6.66 6.3 -7 8 C-4.525 8.495 -4.525 8.495 -2 9 C-1.67 7.35 -1.34 5.7 -1 4 C-2.65 3.67 -4.3 3.34 -6 3 Z " fill="#EBD4AC" transform="translate(16,6)"/>
</svg>
