<?xml version="1.0" encoding="UTF-8"?>
<svg version="1.1" xmlns="http://www.w3.org/2000/svg" width="24" height="24">
<path d="M0 0 C0.78890625 -0.00386719 1.5778125 -0.00773438 2.390625 -0.01171875 C3.21046875 -0.00011719 4.0303125 0.01148437 4.875 0.0234375 C6.10476563 0.00603516 6.10476563 0.00603516 7.359375 -0.01171875 C8.54273438 -0.00591797 8.54273438 -0.00591797 9.75 0 C10.46929688 0.00338379 11.18859375 0.00676758 11.9296875 0.01025391 C14.47587878 0.51834177 15.35124323 1.31450194 16.875 3.3984375 C17.26318359 5.34375 17.26318359 5.34375 17.2734375 7.5234375 C17.27923828 8.70679688 17.27923828 8.70679688 17.28515625 9.9140625 C17.27355469 10.73390625 17.26195313 11.55375 17.25 12.3984375 C17.26160156 13.21828125 17.27320312 14.038125 17.28515625 14.8828125 C17.28128906 15.67171875 17.27742188 16.460625 17.2734375 17.2734375 C17.26836182 18.35238281 17.26836182 18.35238281 17.26318359 19.453125 C16.75509573 21.99931628 15.95893556 22.87468073 13.875 24.3984375 C11.9296875 24.78662109 11.9296875 24.78662109 9.75 24.796875 C8.96109375 24.80074219 8.1721875 24.80460937 7.359375 24.80859375 C6.53953125 24.79699219 5.7196875 24.78539063 4.875 24.7734375 C3.64523437 24.79083984 3.64523437 24.79083984 2.390625 24.80859375 C1.20726562 24.80279297 1.20726562 24.80279297 0 24.796875 C-0.71929688 24.79349121 -1.43859375 24.79010742 -2.1796875 24.78662109 C-4.72587878 24.27853323 -5.60124323 23.48237306 -7.125 21.3984375 C-7.51318359 19.453125 -7.51318359 19.453125 -7.5234375 17.2734375 C-7.52730469 16.48453125 -7.53117188 15.695625 -7.53515625 14.8828125 C-7.52355469 14.06296875 -7.51195312 13.243125 -7.5 12.3984375 C-7.51160156 11.57859375 -7.52320313 10.75875 -7.53515625 9.9140625 C-7.52935547 8.73070312 -7.52935547 8.73070312 -7.5234375 7.5234375 C-7.52005371 6.80414062 -7.51666992 6.08484375 -7.51318359 5.34375 C-6.66386947 1.0875645 -4.04682146 0.01903747 0 0 Z M-4.0390625 3.484375 C-5.71524985 6.43880594 -5.52102581 9.0343072 -5.5 12.3984375 C-5.50773438 13.6359375 -5.51546875 14.8734375 -5.5234375 16.1484375 C-5.34966099 19.28783649 -5.34966099 19.28783649 -4.0390625 21.3125 C-1.08463156 22.98868735 1.5108697 22.79446331 4.875 22.7734375 C6.1125 22.78117187 7.35 22.78890625 8.625 22.796875 C11.76439899 22.62309849 11.76439899 22.62309849 13.7890625 21.3125 C15.46524985 18.35806906 15.27102581 15.7625678 15.25 12.3984375 C15.25773437 11.1609375 15.26546875 9.9234375 15.2734375 8.6484375 C15.09966099 5.50903851 15.09966099 5.50903851 13.7890625 3.484375 C10.83463156 1.80818765 8.2391303 2.00241169 4.875 2.0234375 C3.6375 2.01570312 2.4 2.00796875 1.125 2 C-2.01439899 2.17377651 -2.01439899 2.17377651 -4.0390625 3.484375 Z " fill="#EAD3A9" transform="translate(7.125,-0.3984375)"/>
<path d="M0 0 C4.55384615 -0.36923077 4.55384615 -0.36923077 6.8125 1.5 C7.204375 1.995 7.59625 2.49 8 3 C8.99 2.67 9.98 2.34 11 2 C11.33 1.34 11.66 0.68 12 0 C12.99 0 13.98 0 15 0 C14.690625 0.5775 14.38125 1.155 14.0625 1.75 C12.57663651 4.75670471 12.57663651 4.75670471 12 8 C13.28725907 9.70250393 14.62131719 11.37064759 16 13 C16 13.99 16 14.98 16 16 C11.44615385 16.36923077 11.44615385 16.36923077 9.1875 14.5 C8.795625 14.005 8.40375 13.51 8 13 C4.88214887 13.64644661 4.88214887 13.64644661 4 16 C3.01 16 2.02 16 1 16 C1.309375 15.4225 1.61875 14.845 1.9375 14.25 C3.42336349 11.24329529 3.42336349 11.24329529 4 8 C2.71274093 6.29749607 1.37868281 4.62935241 0 3 C0 2.01 0 1.02 0 0 Z " fill="#EAD4AD" transform="translate(4,4)"/>
</svg>
